<svg version="1.1" xmlns="http://www.w3.org/2000/svg" xmlns:xlink="http://www.w3.org/1999/xlink" width="205.29367" height="177.71373" viewBox="0,0,205.29367,177.71373"><g transform="translate(-102.27806,-91.78631)"><g data-paper-data="{&quot;isPaintingLayer&quot;:true}" fill-rule="nonzero" stroke-linejoin="miter" stroke-miterlimit="10" stroke-dasharray="" stroke-dashoffset="0" style="mix-blend-mode: normal"><path d="M297.50682,231.98765l-0.99547,2.29002l-0.12272,0.7112l-1.45338,3.64679l-0.51521,0.99225l-0.27328,0.41841l-0.52826,1.84241l-0.84567,0.70809l-3.38676,3.19604l-3.49967,3.48869l-1.61198,0.64296l-0.75425,0.48637l-2.51817,1.99693l-1.52216,0.7581l-1.50802,1.19587l-0.39622,0.19733l-1.76898,1.48122l-3.05301,0.92033l-2.85431,1.42155l-0.63726,0.03687l-1.18304,0.30044l-0.82482,0.69064l-0.96237,0.29011l-0.36455,0.17536l-3.68946,1.34137l-1.83945,0.25984l-1.77865,0.53618l-3.91176,0.33094l-0.40449,-0.00618l-0.99526,0.14059l-0.61088,-0.16512l-13.48757,-0.20594l-1.93125,-0.22295l-0.24481,0.01171l-0.85916,-0.13915l-0.86462,-0.09982l-0.23239,-0.07787l-1.91907,-0.31083l-1.99213,-0.53048l-3.23918,-1.21892l-0.28272,0.06722l-0.99051,-0.17091l-0.40449,-0.00618l-3.56253,-0.41128l-0.92821,0.17315l-2.29002,-0.99548l-0.7112,-0.12272l-3.64679,-1.45338l-0.35903,-0.18641l-0.95307,-0.31936l-0.83982,-0.74799l-1.61376,-0.70151l-1.87891,-1.99104l-0.09032,-0.03926l-1.19491,-1.26621l-1.68984,-1.43185l-0.82815,-1.06822l-0.34374,-0.30614l-0.0456,-0.17956l-0.03165,-0.03175l-1.61043,-0.9917l-2.72456,-3.86083l-0.72455,-0.93459l-0.35068,-0.36155l-0.77475,-0.97698l-0.86812,-0.89505l-3.04156,-3.83547l-1.79706,-1.58856l-0.73526,-0.79364l-0.01008,-0.00715l-0.96039,-1.04036l-0.96226,-1.03865l-0.00634,-0.0106l-0.73384,-0.79496l-3.43089,-4.55291l-0.11435,-0.18816l-0.14649,-0.16439l-1.46929,-2.02267l-0.53591,-0.91767l-0.63719,-0.85047l-2.43864,-4.0377l-0.82414,-1.73407l-0.90238,-1.69467l-0.44366,-1.08047l-1.55213,-2.6578l-0.51624,-1.55686l-0.7722,-1.44709l-1.09167,-3.77089l-0.16695,-0.90652l-0.29133,-0.87858l0.04068,-0.48241l-0.04416,-0.23983l-0.1851,-2.23967l-0.38698,-2.56256l-0.10351,-2.05972l-0.17386,-2.05497l0.267,-17.4871l-0.14638,-0.61564l0.1709,-0.99051l0.00618,-0.40449l0.45021,-3.89983l0.59023,-1.76145l0.31588,-1.83066l1.38368,-3.47187l0.28985,-0.95882l0.42329,-1.58961l1.38262,-3.6742l0.19079,-0.29878l0.10314,-0.33916l1.89449,-3.43835l0.59656,-0.8659l0.37158,-0.93237l1.03042,-1.9845l0.45465,-0.6961l0.07381,-0.1375l0.13377,-0.38179l1.66034,-3.55733l1.11696,-1.48443l0.41894,-0.78053l0.49181,-1.61722l0.2566,-0.46572l0.54339,-1.62167l0.91811,-1.03084l0.17638,-0.32011l1.02278,-1.48456l0.44957,-0.53059l0.36887,-0.58955l1.53036,-1.97687l0.88493,-0.93399l0.01881,-0.04029l1.11696,-1.48443l0.87857,-1.63684l2.53202,-3.00004l0.29038,-0.28166l0.60435,-0.80317l0.48726,-0.2799l2.17866,-2.58138l0.29038,-0.28166l0.60435,-0.80317l0.89539,-0.51435l1.15522,-0.9161l0.75899,-0.60429l0.60184,-0.82765l1.91754,-1.14361l1.58122,-1.57625l3.20567,-1.27863l0.43798,-0.26121l0.89398,-0.89118l0.94114,-0.37539l0.67939,-0.43809l0.32535,-0.16653l1.05839,-0.88622l1.63752,-0.49363l0.47333,-0.24226l2.65679,-0.7201l0.23292,-0.08468l1.62872,-0.70045l1.50746,-0.47704l3.84207,-0.80613l0.08712,0.00014l0.0834,-0.02514l0.95662,-0.08093l0.02192,-0.00404l0.02355,-0.00745l3.84207,-0.80613l0.08712,0.00014l0.0834,-0.02514l3.91176,-0.33095l5.07953,0.07756l0.0838,-0.02271l0.43365,-0.18649l1.50746,-0.47704l0.92109,-0.19326l0.58417,-0.17609l0.42752,-0.03617l0.31159,-0.06538l1.44147,-0.3907l0.2918,0.04101l0.03496,-0.01054l3.89381,-0.32943l0.62271,-0.14807l0.99051,0.17091l0.40449,0.00618l3.89983,0.45021l1.76145,0.59023l1.14942,0.19833l0.79931,0.07077l0.6789,0.36439l1.02385,0.40805c3.2717,0.76577 6.44887,2.05222 9.44903,3.86702c5.10888,3.09035 9.3116,8.54994 12.90095,13.33493c2.85411,3.80484 5.91449,7.63033 8.36881,11.70585c6.57774,10.9226 6.948,25.1897 7.62916,37.35667c0.41571,7.42542 1.33187,15.365 0.08118,22.61349l-0.20464,13.40298c-0.89829,7.78116 -2.1168,16.09749 -5.32366,23.44771z" fill="#ae673b" stroke="none" stroke-width="0.5" stroke-linecap="butt"/><path d="M301.9134,142.83879c2.45655,6.19658 4.16569,13.78707 4.68615,20.51806c0.2519,3.25768 1.03083,7.0197 0.96866,10.28919c-0.12984,6.82848 -0.23411,13.65748 -0.3128,20.48674c-0.11272,9.78179 -2.49415,28.81473 -7.19708,37.87219c-1.23332,2.37528 -2.19295,6.68644 -3.96827,8.69477c-3.83045,4.33319 -10.76084,6.68644 -16.50848,6.08954c-10.83499,-1.12523 -15.13161,-13.49044 -19.07912,-21.69633c-2.78465,-5.7886 -2.74105,-12.70547 -3.17899,-19.20211c-0.2424,-3.59588 -1.94865,-6.93455 -2.09262,-10.54674c-0.7921,-19.87436 -0.58063,-40.11273 -0.08388,-60.00827c0.29992,-12.01213 10.13704,-15.58592 19.76765,-17.20091c2.01052,-0.33716 4.19808,-0.88864 6.25097,-0.34199c0.41244,-0.03467 0.83045,-0.04927 1.25304,-0.04282c3.45905,0.05281 6.56845,1.50579 8.79674,3.81099c5.54367,5.22673 8.08945,14.69762 10.69802,21.27765z" fill="#da966b" stroke="none" stroke-width="0.5" stroke-linecap="butt"/><path d="M289.35281,220.36796c-0.06324,4.14165 -3.47198,7.44786 -7.61363,7.38462c-4.14165,-0.06324 -7.44786,-3.47198 -7.38462,-7.61363c0.06324,-4.14165 3.47198,-7.44786 7.61363,-7.38462c4.14165,0.06324 7.44786,3.47198 7.38462,7.61363z" fill="#281b14" stroke="none" stroke-width="0.5" stroke-linecap="butt"/><path d="M286.05941,141.30847c-0.06324,4.14165 -3.47198,7.44786 -7.61363,7.38462c-4.14165,-0.06324 -7.44786,-3.47198 -7.38462,-7.61363c0.06324,-4.14165 3.47198,-7.44786 7.61363,-7.38462c4.14165,0.06324 7.44786,3.47198 7.38462,7.61363z" fill="#281b14" stroke="none" stroke-width="0.5" stroke-linecap="butt"/><path d="M112.27806,191.16119l6.01457,-0.90828l8.51428,-0.87012l8.0983,-6.37711l6.19014,-12.40694l13.61293,-7.29302l10.42244,5.15972l6.85415,9.60576l9.41493,5.64439" fill="none" stroke="#ae673b" stroke-width="20" stroke-linecap="round"/><path d="M252.15883,101.78631l-24.00484,0.13354" fill="none" stroke="#da966b" stroke-width="20" stroke-linecap="round"/><path d="M280.51019,259.14312l-23.37605,0.35692" fill="none" stroke="#da966b" stroke-width="20" stroke-linecap="round"/><path d="M120.8212,189.24145c0,0 8.99289,0.65369 13.0307,-0.97349c4.61979,-1.8617 7.65701,-15.10905 7.65701,-15.10905" fill="none" stroke="#7abe40" stroke-width="27.5" stroke-linecap="round"/></g></g></svg>