<svg version="1.1" xmlns="http://www.w3.org/2000/svg" xmlns:xlink="http://www.w3.org/1999/xlink" width="156.60271" height="176.78343" viewBox="0,0,156.60271,176.78343"><g transform="translate(-150.32462,-81.30804)"><g data-paper-data="{&quot;isPaintingLayer&quot;:true}" fill="#ffffff" fill-rule="nonzero" stroke="#000000" stroke-width="2" stroke-linecap="round" stroke-linejoin="miter" stroke-miterlimit="10" stroke-dasharray="" stroke-dashoffset="0" style="mix-blend-mode: normal"><path d="M151.78325,181.30395c0,0 44.79408,-4.1206 64.07208,-27.49142c13.49411,-16.35895 18.32779,-67.53422 18.32779,-67.53422c0,0 13.64566,42.80151 25.66062,54.13639c11.43595,10.78866 44.77797,12.31513 44.77797,12.31513c0,0 -24.54057,24.60326 -28.40308,37.05983c-4.79463,15.46263 1.82247,48.66259 1.82247,48.66259c0,0 -28.16957,-22.61611 -43.12599,-19.60072c-11.70541,2.35997 -39.27387,36.2136 -39.27387,36.2136c0,0 2.38441,-41.66017 -4.97902,-54.04411c-7.25429,-12.20037 -38.87898,-19.71705 -38.87898,-19.71705z"/></g></g></svg>