<svg version="1.1" xmlns="http://www.w3.org/2000/svg" xmlns:xlink="http://www.w3.org/1999/xlink" width="142.5" height="142.48432"><g transform="translate(-169,-107.32027)"><g data-paper-data="{&quot;isPaintingLayer&quot;:true}" fill="#383838" fill-rule="nonzero" stroke="none" stroke-width="2" stroke-linecap="round" stroke-linejoin="miter" stroke-miterlimit="10" stroke-dasharray="" stroke-dashoffset="0" font-family="none" font-weight="none" font-size="none" text-anchor="none" style="mix-blend-mode: normal"><path d="M246.2716,235.67148l-9.56274,-0.02555" data-paper-data="{&quot;origPos&quot;:null}" stroke="#383838"/><path d="M241.80588,248.80459l-0.21214,-13.1987" data-paper-data="{&quot;origPos&quot;:null}" stroke="#383838"/><g data-paper-data="{&quot;origPos&quot;:null}" stroke="#414141"><path d="M200.44847,219.96122l-6.18635,-7.29217" data-paper-data="{&quot;origPos&quot;:null}"/><path d="M197.46265,216.35962l-9.90426,8.72676" data-paper-data="{&quot;origPos&quot;:null}"/><path d="M279.24925,220.47304l6.56035,-6.95761" data-paper-data="{&quot;origPos&quot;:null}"/><path d="M282.5617,216.8826l9.7723,8.8743" data-paper-data="{&quot;origPos&quot;:null}"/></g><g data-paper-data="{&quot;origPos&quot;:null}" stroke="#505050"><path d="M297.8,183l0.1,-9.2" data-paper-data="{&quot;origPos&quot;:null}"/><path d="M297.8,178.3l12.7,-0.1" data-paper-data="{&quot;origPos&quot;:null}"/><path d="M183.09607,184.10945l0.10394,-9.56221" data-paper-data="{&quot;origPos&quot;:null}"/><path d="M183.2,179.43228l-13.2,0.10394" data-paper-data="{&quot;origPos&quot;:null}"/></g><g data-paper-data="{&quot;origPos&quot;:null}" stroke="#606060"><path d="M280.4263,136.95655l5.95201,7.01595" data-paper-data="{&quot;origPos&quot;:null}"/><path d="M283.29901,140.42174l9.5291,-8.3962" data-paper-data="{&quot;origPos&quot;:null}"/><path d="M194.43965,143.24623l6.31185,-6.69406" data-paper-data="{&quot;origPos&quot;:null}"/><path d="M188.16238,131.46845l9.40213,8.53815" data-paper-data="{&quot;origPos&quot;:null}"/></g><g data-paper-data="{&quot;origPos&quot;:null}" stroke="#747474"><path d="M235.02141,120.95591l9.20051,0.02458" data-paper-data="{&quot;origPos&quot;:null}"/><path d="M239.52207,121.01902l-0.2041,-12.69875" data-paper-data="{&quot;origPos&quot;:null}"/></g></g></g></svg>