<svg version="1.1" xmlns="http://www.w3.org/2000/svg" xmlns:xlink="http://www.w3.org/1999/xlink" width="34.36364" height="14.63637" viewBox="0,0,34.36364,14.63637"><g transform="translate(-210.04545,-205.5606)"><g data-paper-data="{&quot;isPaintingLayer&quot;:true}" fill-rule="nonzero" stroke-linejoin="miter" stroke-miterlimit="10" stroke-dasharray="" stroke-dashoffset="0" style="mix-blend-mode: normal"><path d="M233.04546,212.19698l10.36364,0.09091" fill="none" stroke="#ffffff" stroke-width="2" stroke-linecap="round"/><path d="M234.1974,212.23904c-1.05177,4.73295 -3.62487,5.83693 -8.60649,5.73066c-0.54201,-0.01156 -2.77169,-0.63006 -3.26168,-0.41706c-0.45462,0.19762 -0.76671,0.88201 -1.64741,0.68979c-2.43376,-0.53118 -5.17772,-2.69503 -4.55353,-5.47239c1.18938,-5.29217 8.38415,-6.34177 12.86603,-5.34579c1.32922,0.29538 5.72405,3.02376 5.10889,4.67351z" fill="#808080" stroke="none" stroke-width="0.5" stroke-linecap="butt"/><path d="" fill="#ffe95e" stroke="none" stroke-width="0.5" stroke-linecap="butt"/><path d="M216.50001,211.28788l-4.45455,-4.72727" fill="none" stroke="#ff5e68" stroke-width="2" stroke-linecap="round"/><path d="M215.95455,212.28788l-4.90909,-4.63636" fill="none" stroke="#ff5e68" stroke-width="2" stroke-linecap="round"/><path d="M216.31819,213.92425l-4.27273,3.54545" fill="none" stroke="#ff5e68" stroke-width="2" stroke-linecap="round"/><path d="M217.04546,215.10607l-4.81818,4.09091" fill="none" stroke="#ff5e68" stroke-width="2" stroke-linecap="round"/><path d="M227.2487,214.06061c1.5977,-0.01331 2.65415,-2.10595 4.30015,-2.19739c0.89615,-0.04979 2.4073,1.13961 2.46673,2.194c0.30032,5.32804 -12.3375,6.01873 -14.96014,4.2703c-0.97199,-0.06598 -1.79153,-0.68754 -2.14357,-1.54964c-0.41746,-0.2588 -0.75307,-0.63711 -0.95903,-1.08715c-0.53598,-0.67082 -0.8,-1.60512 -0.51177,-2.75801c0.99702,-3.98808 5.23002,-5.47665 5.088,0.30975c2.19544,-0.02182 4.83167,0.83387 6.71963,0.81814z" fill="#676767" stroke="none" stroke-width="0.5" stroke-linecap="butt"/><path d="" fill="#ff5e68" stroke="none" stroke-width="0.5" stroke-linecap="butt"/></g></g></svg>