<svg version="1.1" xmlns="http://www.w3.org/2000/svg" xmlns:xlink="http://www.w3.org/1999/xlink" width="371.2485" height="349.33973" viewBox="0,0,371.2485,349.33973"><g transform="translate(-43.42137,-5.33014)"><g data-paper-data="{&quot;isPaintingLayer&quot;:true}" fill="#cbcbcb" fill-rule="nonzero" stroke="none" stroke-linecap="butt" stroke-linejoin="miter" stroke-miterlimit="10" stroke-dasharray="" stroke-dashoffset="0" style="mix-blend-mode: normal"><path d="M215.37197,179.13963c0,-13.80712 11.19288,-25 25,-25c13.80712,0 25,11.19288 25,25c0,13.80712 -11.19288,25 -25,25c-13.80712,0 -25,-11.19288 -25,-25z" stroke-width="0.5"/><path d="M65.33013,180c0,-96.4675 78.20236,-174.66986 174.66988,-174.66986c96.4675,0 174.66986,78.20236 174.66986,174.66986c0,96.4675 -78.20236,174.66986 -174.66986,174.66986c-96.4675,0 -174.66986,-78.20236 -174.66986,-174.66986z" stroke-width="0"/><path d="M43.42137,236.72269v0v0v0z" stroke-width="0"/></g></g></svg>