<svg version="1.1" xmlns="http://www.w3.org/2000/svg" xmlns:xlink="http://www.w3.org/1999/xlink" width="111.70681" height="132.99989" viewBox="0,0,111.70681,132.99989"><g transform="translate(-184.14659,-113.50006)"><g data-paper-data="{&quot;isPaintingLayer&quot;:true}" fill-rule="nonzero" stroke="none" stroke-width="0.5" stroke-linecap="butt" stroke-linejoin="miter" stroke-miterlimit="10" stroke-dasharray="" stroke-dashoffset="0" style="mix-blend-mode: normal"><path d="M287.45144,221.04695l-0.831,1.91166l-0.10244,0.59369l-1.21325,3.04426l-0.43009,0.82831l-0.22813,0.34928l-0.44098,1.538l-0.70595,0.5911l-2.82719,2.66798l-2.92145,2.91228l-1.34565,0.53673l-0.62963,0.40601l-2.10211,1.66699l-1.27067,0.63285l-1.25886,0.99829l-0.33076,0.16473l-1.47671,1.23649l-2.54859,0.76827l-2.38272,1.18668l-0.53197,0.03078l-0.98758,0.2508l-0.68854,0.57653l-0.80337,0.24218l-0.30432,0.14639l-3.07988,1.11975l-1.53553,0.21691l-1.48478,0.44759l-3.26545,0.27626l-0.33766,-0.00516l-0.83082,0.11736l-0.50995,-0.13784l-11.25913,-0.17191l-1.61217,-0.18611l-0.20436,0.00978l-0.71721,-0.11616l-0.72177,-0.08333l-0.19399,-0.065l-1.602,-0.25947l-1.66299,-0.44283l-2.704,-1.01753l-0.23601,0.05611l-0.82686,-0.14267l-0.33766,-0.00516l-2.97392,-0.34333l-0.77485,0.14454l-1.91166,-0.83101l-0.59369,-0.10244l-3.04426,-1.21325l-0.29971,-0.15561l-0.7956,-0.26659l-0.70106,-0.62441l-1.34713,-0.58561l-1.56847,-1.66208l-0.0754,-0.03277l-0.99748,-1.057l-1.41064,-1.19528l-0.69132,-0.89173l-0.28695,-0.25556l-0.03807,-0.14989l-0.02642,-0.0265l-1.34435,-0.82785l-2.2744,-3.22294l-0.60484,-0.78018l-0.29274,-0.30181l-0.64674,-0.81556l-0.72469,-0.74717l-2.53903,-3.20177l-1.50015,-1.3261l-0.61378,-0.66251l-0.00841,-0.00597l-0.80171,-0.86847l-0.80327,-0.86704l-0.00529,-0.00885l-0.61259,-0.66362l-2.86403,-3.80067l-0.09546,-0.15707l-0.12229,-0.13723l-1.22653,-1.68848l-0.44737,-0.76605l-0.53191,-0.70995l-2.03572,-3.37058l-0.68797,-1.44756l-0.75329,-1.41467l-0.37036,-0.90195l-1.29568,-2.21867l-0.43095,-1.29963l-0.64462,-1.208l-0.9113,-3.14786l-0.13937,-0.75674l-0.2432,-0.73342l0.03396,-0.40271l-0.03686,-0.2002l-0.15452,-1.86963l-0.32304,-2.13917l-0.08641,-1.71941l-0.14513,-1.71544l0.22289,-14.59785l-0.12219,-0.51392l0.14266,-0.82686l0.00516,-0.33766l0.37583,-3.25549l0.49271,-1.47042l0.26369,-1.5282l1.15507,-2.89824l0.24196,-0.8004l0.35335,-1.32697l1.15418,-3.06714l0.15927,-0.24942l0.0861,-0.28312l1.58148,-2.87026l0.498,-0.72283l0.31019,-0.77832l0.86017,-1.65662l0.37953,-0.58109l0.06161,-0.11478l0.11167,-0.31871l1.38602,-2.96958l0.93241,-1.23917l0.34972,-0.65157l0.41055,-1.35002l0.2142,-0.38877l0.45361,-1.35373l0.76642,-0.86052l0.14724,-0.26722l0.85379,-1.23928l0.37529,-0.44293l0.30792,-0.49214l1.27751,-1.65025l0.73872,-0.77967l0.0157,-0.03363l0.93241,-1.23917l0.73341,-1.3664l2.11368,-2.50437l0.2424,-0.23512l0.5045,-0.67047l0.40675,-0.23365l1.8187,-2.15488l0.2424,-0.23512l0.5045,-0.67047l0.74745,-0.42937l0.96435,-0.76474l0.63359,-0.50445l0.5024,-0.6909l1.60072,-0.95466l1.31997,-1.31582l2.67602,-1.06737l0.36562,-0.21805l0.74628,-0.74394l0.78564,-0.31337l0.56714,-0.36571l0.2716,-0.13902l0.88352,-0.7398l1.36697,-0.41207l0.39513,-0.20223l2.21783,-0.60112l0.19444,-0.07069l1.35962,-0.58472l1.25839,-0.39822l3.20728,-0.67294l0.07273,0.00012l0.06962,-0.02099l0.79857,-0.06756l0.0183,-0.00337l0.01966,-0.00622l3.20728,-0.67294l0.07273,0.00012l0.06962,-0.02099l3.26545,-0.27627l4.24028,0.06475l0.06995,-0.01896l0.362,-0.15568l1.25839,-0.39822l0.76891,-0.16133l0.48765,-0.147l0.35688,-0.03019l0.26011,-0.05458l1.20331,-0.32615l0.24359,0.03423l0.02918,-0.0088l3.25047,-0.275l0.51982,-0.12361l0.82686,0.14267l0.33766,0.00516l3.25549,0.37583l1.47042,0.49271l0.95951,0.16556l0.66725,0.05908l0.56673,0.30418l0.85469,0.34063c2.73114,0.63925 5.38338,1.71315 7.88785,3.2281c4.26478,2.57976 7.77312,7.1373 10.76943,11.13171c2.38255,3.1762 4.93729,6.36963 6.9861,9.77179c5.49095,9.11795 5.80004,21.02782 6.36866,31.18454c0.34703,6.19858 1.11182,12.82637 0.06777,18.87725l-0.17083,11.18852c-0.74987,6.49554 -1.76706,13.43784 -4.44408,19.57364z" fill="#ae673b"/><path d="M291.12996,146.62741c2.05067,5.17277 3.47743,11.50915 3.9119,17.12803c0.21028,2.71944 0.86051,5.85989 0.80862,8.58919c-0.10839,5.70027 -0.19543,11.40097 -0.26112,17.10189c-0.0941,8.16563 -2.08206,24.05391 -6.00797,31.61488c-1.02955,1.98283 -1.83063,5.5817 -3.31263,7.25821c-3.19758,3.61725 -8.98292,5.5817 -13.78092,5.08342c-9.04481,-0.93932 -12.63154,-11.26153 -15.92684,-18.11163c-2.32457,-4.8322 -2.28817,-10.60625 -2.65375,-16.02951c-0.20235,-3.00176 -1.62669,-5.78881 -1.74687,-8.80419c-0.66123,-16.59068 -0.4847,-33.48524 -0.07002,-50.0936c0.25037,-10.02747 8.46218,-13.01079 16.50161,-14.35895c1.67834,-0.28145 3.50447,-0.74182 5.21817,-0.28549c0.3443,-0.02894 0.69324,-0.04113 1.04601,-0.03575c2.88754,0.04408 5.4832,1.257 7.34333,3.18133c4.62774,4.36316 6.7529,12.26925 8.93048,17.76212z" fill="#da966b"/><path d="M280.64465,211.34709c-0.05279,3.45736 -2.89833,6.21731 -6.35569,6.16452c-3.45736,-0.05279 -6.21731,-2.89833 -6.16452,-6.35569c0.05279,-3.45736 2.89833,-6.21731 6.35569,-6.16452c3.45736,0.05279 6.21731,2.89833 6.16452,6.35569z" fill="#281b14"/><path d="M277.89539,145.34992c-0.05279,3.45736 -2.89833,6.21731 -6.35569,6.16452c-3.45736,-0.05279 -6.21731,-2.89833 -6.16452,-6.35569c0.05279,-3.45736 2.89833,-6.21731 6.35569,-6.16452c3.45736,0.05279 6.21731,2.89833 6.16452,6.35569z" fill="#281b14"/><path d="" fill="#ffe95e"/></g></g></svg>