<svg version="1.1" xmlns="http://www.w3.org/2000/svg" xmlns:xlink="http://www.w3.org/1999/xlink" width="525.01543" height="525.0154" viewBox="0,0,525.01543,525.0154"><g transform="translate(22.50771,82.5077)"><g data-paper-data="{&quot;isPaintingLayer&quot;:true}" fill="#cbcbcb" fill-rule="nonzero" stroke="none" stroke-linecap="butt" stroke-linejoin="miter" stroke-miterlimit="10" stroke-dasharray="" stroke-dashoffset="0" style="mix-blend-mode: normal"><path d="M215.37197,179.13963c0,-13.80712 11.19288,-25 25,-25c13.80712,0 25,11.19288 25,25c0,13.80712 -11.19288,25 -25,25c-13.80712,0 -25,-11.19288 -25,-25z" stroke-width="0.5"/><path d="M-22.50771,180c0,-144.979 117.5287,-262.5077 262.50773,-262.5077c144.979,0 262.5077,117.5287 262.5077,262.5077c0,144.979 -117.5287,262.5077 -262.5077,262.5077c-144.979,0 -262.5077,-117.5287 -262.5077,-262.5077z" stroke-width="0"/><path d="M43.42137,236.72269v0v0z" stroke-width="0"/></g></g></svg>