<svg version="1.1" xmlns="http://www.w3.org/2000/svg" xmlns:xlink="http://www.w3.org/1999/xlink" width="232.44133" height="232.39094" viewBox="0,0,232.44133,232.39094"><defs><linearGradient x1="240.00001" y1="67.05453" x2="240.00001" y2="292.94547" gradientUnits="userSpaceOnUse" id="color-1"><stop offset="0" stop-color="#bfbfbf"/><stop offset="1" stop-color="#9c9c9c"/></linearGradient><linearGradient x1="239.99999" y1="88.91997" x2="239.99999" y2="271.08004" gradientUnits="userSpaceOnUse" id="color-2"><stop offset="0" stop-color="#bfbfbf"/><stop offset="1" stop-color="#9c9c9c"/></linearGradient><linearGradient x1="240" y1="160.09961" x2="240" y2="199.9004" gradientUnits="userSpaceOnUse" id="color-3"><stop offset="0" stop-color="#bfbfbf"/><stop offset="1" stop-color="#9c9c9c"/></linearGradient><linearGradient x1="239.99998" y1="87.13423" x2="239.99998" y2="272.86576" gradientUnits="userSpaceOnUse" id="color-4"><stop offset="0" stop-color="#bfbfbf"/><stop offset="1" stop-color="#9c9c9c"/></linearGradient></defs><g transform="translate(-123.77933,-63.80453)"><g data-paper-data="{&quot;isPaintingLayer&quot;:true}" fill-rule="nonzero" stroke-linejoin="miter" stroke-miterlimit="10" stroke-dasharray="" stroke-dashoffset="0" style="mix-blend-mode: normal"><g><path d="M220.22356,292.94547v-225.89094h39.55289v225.89094z" fill="url(#color-1)" stroke="#636363" stroke-width="6.5" stroke-linecap="butt"/><path d="M309.65782,271.08004l-166.11836,-153.07319l26.80271,-29.08688l166.11836,153.07319z" fill="url(#color-2)" stroke="#636363" stroke-width="6.5" stroke-linecap="butt"/><path d="M352.9671,199.65247l-225.89079,0.24794l-0.04341,-39.55286l225.8908,-0.24794z" fill="url(#color-3)" stroke="#636363" stroke-width="6.5" stroke-linecap="butt"/><path d="M334.8109,115.51219l-162.06964,157.35357l-27.55219,-28.37796l162.06964,-157.35357z" fill="url(#color-4)" stroke="#636363" stroke-width="6.5" stroke-linecap="butt"/><g fill="#ff91bb" stroke="#636363" stroke-width="12" stroke-linecap="butt"><path d="M217.34055,270.15223v-180.30447h45.3189v180.30447z"/><path d="M290.50492,258.03927l-131.90645,-122.92432l30.89661,-33.15423l131.90646,122.92432z"/><path d="M330.2368,202.32031l-180.30319,0.67794l-0.1704,-45.31859l180.30319,-0.67794z"/><path d="M320.35342,133.26451l-129.05985,125.90971l-31.64697,-32.43874l129.05985,-125.90971z"/></g><path d="M161.40078,180c0,-43.40914 35.19007,-78.59921 78.59921,-78.59921c43.40915,0 78.59921,35.19007 78.59921,78.59921c0,43.40915 -35.19007,78.59921 -78.59921,78.59921c-43.40914,0 -78.59921,-35.19007 -78.59921,-78.59921z" fill="#636363" stroke="none" stroke-width="0.5" stroke-linecap="butt"/><path d="M169.46541,180c0,-38.95518 31.57942,-70.53459 70.53459,-70.53459c38.95518,0 70.53459,31.57942 70.53459,70.53459c0,38.95518 -31.57942,70.53459 -70.53459,70.53459c-38.95518,0 -70.53459,-31.57942 -70.53459,-70.53459z" fill="#ff91bb" stroke="none" stroke-width="0.5" stroke-linecap="butt"/><path d="M219.47395,206.12406l41.05208,-52.24811" fill="none" stroke="#636363" stroke-width="12" stroke-linecap="round"/><path d="M219.47395,153.87595l41.05209,52.24811" fill="none" stroke="#636363" stroke-width="12" stroke-linecap="round"/><path d="M185.48034,192.36584c3.73032,3.39324 3.99218,9.00654 7.06222,12.75139c10.27964,12.53914 23.23528,24.46571 40.24032,26.81189c5.69869,0.78625 11.67022,0.90855 17.44704,0.86379c1.20298,-0.00932 3.20615,-1.37108 4.4221,-1.74646c3.58379,-1.10638 7.12103,-2.28061 10.68781,-3.50264c1.92588,-0.65982 3.62507,-2.85804 5.54126,-3.59307c1.55837,-0.59776 5.96436,-2.89394 7.06201,-4.3948c1.92946,-2.63822 5.56486,-4.49844 7.89765,-7.17068c1.28875,-1.47628 3.07505,-4.68426 4.90756,-5.49441c0.00126,-0.00056 0.00251,-0.00111 0.00377,-0.00167c2.77016,-4.42741 5.11726,-10.13468 6.58297,-14.62919c0.60176,-1.84529 2.93401,-4.51789 2.95751,-6.37453c0.04219,-3.33246 -1.51169,-7.60582 0.84491,-9.96242c4.72744,-4.72744 12.11607,-3.98095 12.67363,3.37964c1.02791,13.56965 -8.41415,29.46567 -15.39805,40.81374c-1.1104,1.80427 -3.25117,3.49907 -4.13908,5.29682c-3.38343,6.85044 -9.8379,14.20989 -17.17026,16.91282c-6.65739,2.45411 -12.45983,8.18135 -19.72903,8.0884c-0.13694,-0.00175 -0.33648,0.00276 -0.58182,0.00922c-2.72566,1.12574 -5.59354,2.152 -6.11257,2.15026c-3.46898,-0.01163 -9.10089,0.04211 -12.56989,0.04211c-6.57205,0 -12.84455,-1.79679 -18.93777,-3.98819c-1.10342,-0.39684 -3.62584,-0.90455 -4.56961,-1.68729c-1.75662,-1.45685 -3.47544,-2.72617 -5.62877,-3.54682c-12.97747,-4.9458 -18.42385,-8.1092 -26.0107,-20.52412c-0.94614,-1.54822 -2.56316,-2.7729 -3.40243,-4.62016c-1.37597,-1.09315 -2.14013,-2.76027 -3.25412,-4.6169c-4.14173,-6.90288 -3.99539,-11.91414 -5.86375,-19.60606c-0.67107,-2.76273 -2.30613,-10.83643 -0.08115,-12.10785l5.82525,-3.32872c1.71057,0.97747 4.06729,1.31316 5.38823,2.67764c0.20145,0.2081 0.37882,0.44012 0.52613,0.70199c1.36253,2.42224 1.16412,6.35957 1.4184,9.17626c0.68346,0.26015 1.34508,0.66043 1.96022,1.21998z" fill="#e1588d" stroke="none" stroke-width="0.5" stroke-linecap="butt"/><path d="M293.80739,130.44239c1.46618,1.71054 1.33443,4.47075 2.42319,6.19545c0.86025,1.36271 2.99739,2.51287 3.09854,4.33353c0.07179,1.29233 -0.73524,2.48392 -1.02168,3.74616c-0.15587,0.68681 -0.22855,2.4643 -0.77065,2.8257c-8.67054,5.78037 -12.4746,-4.82954 -18.35292,-8.84087c-1.52112,-1.03801 -3.73616,-1.26067 -5.50644,-1.79944c-2.8622,-0.87111 -6.01481,-5.7749 -9.2985,-6.08165c-7.32331,-0.68412 -12.28279,-1.34783 -20.78163,-1.15443c-9.88453,0.22493 -25.83869,7.56483 -34.78183,11.42322c-4.51121,1.94629 -9.85797,5.61324 -14.14443,2.62774c-0.58251,0.89185 -1.2313,1.69261 -2.03359,2.17398c-0.80125,0.48075 -1.51502,1.31397 -2.44799,1.3658c-1.29233,0.0718 -2.48393,-0.73523 -3.74616,-1.02168c-0.68681,-0.15586 -2.4643,-0.22855 -2.82569,-0.77065c-0.81839,-1.2276 -0.71395,-2.86534 -1.1646,-4.27022c-0.18703,-0.58305 -0.77682,-1.63065 -0.62772,-2.30163c0.79526,-3.57866 5.06557,-8.14581 7.73252,-10.31272l0.06282,-0.06282c0.14858,-0.08915 0.29495,-0.17613 0.4392,-0.26083c0.10181,-0.40037 0.25942,-0.7625 0.56738,-1.02646v-0.00002c3.31386,-2.84045 7.76542,-4.30768 11.14111,-6.82216c4.24134,-3.15928 9.44104,-5.19725 14.60661,-6.68567c1.58067,-0.45546 2.86011,-1.75209 4.44892,-2.10516c14.8338,-3.2964 31.00616,-7.71806 44.9656,0.51283c4.34434,2.56155 10.65564,3.27944 14.59228,6.65369c0.19935,0.17088 0.68095,0.80591 1.23369,1.52624c0.09624,-0.00406 0.193,-0.00612 0.29024,-0.00612c2.59243,0 4.84398,1.45945 5.97786,3.60156c2.16107,1.96524 4.06121,4.36353 5.92385,6.53661z" fill="#ffaecd" stroke="none" stroke-width="0.5" stroke-linecap="butt"/><path d="M302.68535,174.62586c0,0 -13.4202,57.13396 -60.25279,56.08326c-56.67566,-1.27154 -65.11791,-49.38759 -65.11791,-49.38759" fill="none" stroke="#ff91bb" stroke-width="17.5" stroke-linecap="round"/><path d="M313.53695,173.70231c0,0 -1.55361,77.0803 -72.95106,78.21299c-70.31828,1.11558 -74.35373,-70.132 -74.35373,-70.132" fill="none" stroke="#636363" stroke-width="6.5" stroke-linecap="round"/><path d="M184.47208,158.00211l-10.38983,2.07797" fill="none" stroke="#ff91bb" stroke-width="0.5" stroke-linecap="round"/><path d="M189.55156,147.15051c0,0 16.0287,-21.10179 53.56813,-20.86608c33.13576,0.20806 48.25227,20.63519 48.25227,20.63519" fill="none" stroke="#ff91bb" stroke-width="21.5" stroke-linecap="round"/><path d="M174.08225,143.68723c0,0 25.34145,-37.00787 64.88691,-38.5451c50.35678,0.07472 66.94857,38.77598 66.94857,38.77598" fill="none" stroke="#636363" stroke-width="10.5" stroke-linecap="round"/><path d="M276.2834,161.26927l-24.05071,-23.22138" fill="none" stroke="#636363" stroke-width="12" stroke-linecap="round"/><path d="M225.27928,140.53589l-21.97737,19.90404" fill="none" stroke="#636363" stroke-width="12" stroke-linecap="round"/></g></g></g></svg>