<svg version="1.1" xmlns="http://www.w3.org/2000/svg" xmlns:xlink="http://www.w3.org/1999/xlink" width="408.78319" height="408.78496" viewBox="0,0,408.78319,408.78496"><g transform="translate(-34.02943,27.06443)"><g data-paper-data="{&quot;isPaintingLayer&quot;:true}" fill="none" fill-rule="nonzero" stroke="#636363" stroke-width="12" stroke-linecap="round" stroke-linejoin="miter" stroke-miterlimit="10" stroke-dasharray="" stroke-dashoffset="0" style="mix-blend-mode: normal"><path d="M218.55325,43.46544l40.03395,-0.57192"/><path d="M236.66006,-21.06443v62.79088"/><path d="M217.95639,315.60159h42.75124"/><path d="M236.66006,315.60159l1.33598,60.11894"/><g><path d="M372.68411,201.08239l-0.25687,-40.03721"/><path d="M436.81262,179.65922l-62.78894,-0.4941"/><path d="M100.30419,158.30691l-0.3364,42.74992"/><path d="M40.02943,177.87287l60.12758,-0.86286"/></g><g><path d="M322.44946,70.41416l28.19064,28.43117"/><path d="M381.4807,38.6766l-45.21504,43.56944"/><path d="M155.7373,289.59934l-29.6643,-30.78471"/><path d="M139.05113,272.28294l-42.36399,42.67744"/></g><g><path d="M344.55188,262.80355l-28.65212,27.96605"/><path d="M375.82394,322.08271l-43.21229,-45.55648"/><path d="M126.68534,94.37181l31.01718,-29.42114"/><path d="M144.1325,77.82242l-42.34276,-42.6985"/></g></g></g></svg>