<svg version="1.1" xmlns="http://www.w3.org/2000/svg" xmlns:xlink="http://www.w3.org/1999/xlink" width="293.5029" height="354.23891" viewBox="0,0,293.5029,354.23891"><g transform="translate(-106.63917,-2.90025)"><g data-paper-data="{&quot;isPaintingLayer&quot;:true}" fill-rule="nonzero" stroke-linejoin="miter" stroke-miterlimit="10" stroke-dasharray="" stroke-dashoffset="0" style="mix-blend-mode: normal"><path d="M106.83393,347.66596v-344.76571h293.30814v344.76571z" fill="#31e87e" stroke="none" stroke-width="0" stroke-linecap="butt"/><path d="M106.63917,347.66596v-81.47448h292.45052v81.47448z" fill="#1ccd66" stroke="none" stroke-width="0" stroke-linecap="butt"/><text transform="translate(170.50002,330.00003) scale(1.6701,1.6701)" font-size="40" xml:space="preserve" fill="#fefefe" fill-rule="nonzero" stroke="none" stroke-width="1" stroke-linecap="butt" stroke-linejoin="miter" stroke-miterlimit="10" stroke-dasharray="" stroke-dashoffset="0" font-family="Marker" font-weight="normal" text-anchor="start" style="mix-blend-mode: normal"><tspan x="0" dy="0">$600</tspan></text><g><path d="M135.4222,147.28591l7.07167,-1.06792l10.01072,-1.02305l9.52163,-7.49793l7.2781,-14.58755l16.0055,-8.57482l12.25426,6.06658l8.05881,11.29404l11.06967,6.63643" fill="none" stroke="#ae673b" stroke-width="20" stroke-linecap="round"/><path d="M217.85058,75.80113l12.37483,-12.95443" fill="none" stroke="#ffe95e" stroke-width="4" stroke-linecap="round"/><path d="M216.44956,75.4454l9.19382,-16.19659" fill="none" stroke="#efd634" stroke-width="4" stroke-linecap="round"/><path d="M206.79654,63.56455l10.3846,11.25464" fill="none" stroke="#ffe95e" stroke-width="4" stroke-linecap="round"/><path d="M189.06338,64.76954l7.66348,15.65844" fill="none" stroke="#efd634" stroke-width="4" stroke-linecap="round"/><path d="M210.78182,61.53164l-12.37483,12.95443" fill="none" stroke="#ffe95e" stroke-width="4" stroke-linecap="round"/><path d="M195.5736,73.12863l12.05855,-14.19321" fill="none" stroke="#efd634" stroke-width="4" stroke-linecap="round"/><path d="M189.72629,75.20036l-6.57581,-13.82988" fill="none" stroke="#ffe95e" stroke-width="4" stroke-linecap="round"/><path d="M178.40962,60.68343l7.66348,15.65844" fill="none" stroke="#efd634" stroke-width="4" stroke-linecap="round"/><path d="M213.78166,66.84041l12.37483,-12.95443" fill="none" stroke="#ffe95e" stroke-width="4" stroke-linecap="round"/><path d="M223.00683,51.28974l-12.05855,14.19321" fill="none" stroke="#efd634" stroke-width="4" stroke-linecap="round"/><path d="M206.49388,66.7217l-10.3846,-11.25463" fill="none" stroke="#efd634" stroke-width="4" stroke-linecap="round"/><path d="M203.34417,68.89615l-11.96602,-12.67793" fill="none" stroke="#ffe95e" stroke-width="4" stroke-linecap="round"/><path d="M190.02175,77.61101l12.37483,-12.95443" fill="none" stroke="#efd634" stroke-width="4" stroke-linecap="round"/><path d="M199.24692,62.06036l-12.05855,14.19321" fill="none" stroke="#ffe95e" stroke-width="4" stroke-linecap="round"/><path d="M208.89417,66.23768l10.3846,11.25464" fill="none" stroke="#efd634" stroke-width="4" stroke-linecap="round"/><path d="M216.12906,79.66675l-11.96603,-12.67793" fill="none" stroke="#ffe95e" stroke-width="4" stroke-linecap="round"/><path d="M230.85262,167.7947c-0.22547,6.53884 0.44283,16.28475 -2.98814,22.3117c-3.02187,5.30833 -7.39552,7.8547 -12.197,8.38583c-5.50198,3.12725 -13.61287,2.41606 -19.12265,1.37375c-23.15359,-4.38006 -24.79885,-35.71986 -25.01261,-53.65287c-0.12461,-10.45434 -0.08281,-20.91048 0,-31.36522c0.03401,-4.29385 0.86091,-8.64821 0.86091,-12.95371c0,-3.77944 0.48373,-11.43895 2.41777,-18.23173c0.32044,-2.5735 1.30623,-4.94045 2.77983,-6.9233c2.40771,-4.22999 5.88102,-6.91639 10.85773,-5.9092c0.31279,-0.01987 0.62822,-0.02996 0.94603,-0.02996c2.83958,0 5.49109,0.8053 7.73857,2.19998c0.99304,0.23776 6.85329,-2.5793 9.19725,-2.5793c9.77424,0 18.63224,2.8524 24.45113,10.889c4.58732,6.33565 4.14217,15.66248 3.81196,22.89133c-0.36938,8.08623 -2.02597,16.00624 -3.81605,23.89838c2.91288,13.28113 0.5594,25.65453 0.07524,39.69533z" fill="#808080" stroke="none" stroke-width="0.5" stroke-linecap="butt"/><path d="M172.38987,119.87569c0.96156,-1.34663 2.19474,-2.42849 3.62348,-3.29272c2.44925,-1.82641 5.4869,-2.90756 8.77708,-2.90756c0.29218,0 0.58236,0.00852 0.87033,0.02534c6.98135,-0.77922 14.67196,0.18906 19.27248,0.55016c8.43863,0.66236 14.69696,5.60049 14.69696,14.69696c0,17.7955 -21.94751,16.17424 -34.26426,14.12145c-0.01807,-0.00301 -0.03621,-0.00603 -0.0544,-0.00907c-0.17295,0.00603 -0.34667,0.00907 -0.52111,0.00907c-2.76903,0 -5.35918,-0.76577 -7.57028,-2.0971c-4.27033,-2.57123 -7.12669,-7.25197 -7.12669,-12.59986c0,-1.84392 0.33957,-3.60852 0.95958,-5.23468c0.26141,-1.17451 0.64396,-2.29168 1.33681,-3.26201z" fill="#efd634" stroke="none" stroke-width="0.5" stroke-linecap="butt"/><path d="M352.91844,195.00014l-1.17043,2.69251l-0.14429,0.8362l-1.70882,4.28774l-0.60576,1.16664l-0.32131,0.49195l-0.62111,2.16623l-0.9943,0.83254l-3.98201,3.75777l-4.11476,4.10185l-1.8953,0.75596l-0.88681,0.57185l-2.96076,2.3479l-1.78969,0.89134l-1.77306,1.40605l-0.46586,0.23201l-2.07989,1.74155l-3.5896,1.08208l-3.35597,1.6714l-0.74926,0.04335l-1.39097,0.35324l-0.96979,0.81202l-1.13151,0.3411l-0.42862,0.20618l-4.33791,1.57713l-2.16275,0.30551l-2.09126,0.63042l-4.59928,0.3891l-0.47558,-0.00727l-1.17018,0.1653l-0.71825,-0.19414l-15.8581,-0.24214l-2.27068,-0.26213l-0.28784,0.01377l-1.01016,-0.16361l-1.01658,-0.11736l-0.27323,-0.09156l-2.25636,-0.36546l-2.34226,-0.62372l-3.80849,-1.43315l-0.33241,0.07903l-1.1646,-0.20095l-0.47558,-0.00727l-4.18867,-0.48357l-1.09135,0.20358l-2.69251,-1.17044l-0.8362,-0.14429l-4.28774,-1.70882l-0.42213,-0.21917l-1.12058,-0.37549l-0.98742,-0.87945l-1.89739,-0.82481l-2.20914,-2.34098l-0.10619,-0.04616l-1.40492,-1.48876l-1.98684,-1.68351l-0.9737,-1.25597l-0.40415,-0.35995l-0.05361,-0.21112l-0.03721,-0.03733l-1.89347,-1.166l-3.20342,-4.5394l-0.85189,-1.09885l-0.41231,-0.42509l-0.91092,-1.14869l-1.0207,-1.05236l-3.57614,-4.50958l-2.11291,-1.86776l-0.86449,-0.93313l-0.01185,-0.00841l-1.12919,-1.22321l-1.13138,-1.2212l-0.00745,-0.01246l-0.86282,-0.93468l-4.03389,-5.35312l-0.13445,-0.22123l-0.17224,-0.19328l-1.72753,-2.37817l-0.6301,-1.07896l-0.74918,-0.99995l-2.86725,-4.74735l-0.96899,-2.03884l-1.06098,-1.99252l-0.52164,-1.27037l-1.82493,-3.12493l-0.60697,-1.83049l-0.90792,-1.70143l-1.28354,-4.43365l-0.19629,-1.06585l-0.34253,-1.033l0.04783,-0.5672l-0.05192,-0.28198l-0.21763,-2.63331l-0.45499,-3.01295l-0.1217,-2.42173l-0.20442,-2.41615l0.31393,-20.56058l-0.17211,-0.72384l0.20094,-1.1646l0.00727,-0.47558l0.52934,-4.58525l0.69397,-2.07104l0.3714,-2.15241l1.62687,-4.08208l0.34079,-1.12734l0.49769,-1.86899l1.62562,-4.31997l0.22432,-0.35129l0.12127,-0.39877l2.22746,-4.04266l0.70141,-1.01809l0.43689,-1.09624l1.21152,-2.33329l0.53456,-0.81844l0.08678,-0.16167l0.15728,-0.44889l1.95216,-4.18256l1.31327,-1.74533l0.49257,-0.91771l0.57825,-1.90146l0.3017,-0.54757l0.63889,-1.90669l1.07947,-1.21202l0.20738,-0.37637l1.20254,-1.74548l0.52859,-0.62384l0.4337,-0.69317l1.79933,-2.32432l1.04046,-1.09815l0.02212,-0.04737l1.31327,-1.74533l1.03298,-1.92453l2.97704,-3.52732l0.34142,-0.33116l0.71057,-0.94433l0.5729,-0.32909l2.56157,-3.03508l0.34142,-0.33116l0.71057,-0.94433l1.05276,-0.60475l1.35826,-1.07711l0.89239,-0.7105l0.70762,-0.97312l2.25456,-1.34461l1.85913,-1.85329l3.76909,-1.50336l0.51496,-0.30712l1.0511,-1.04781l1.10655,-0.44137l0.7988,-0.51509l0.38253,-0.1958l1.24441,-1.04198l1.92533,-0.58039l0.55652,-0.28484l3.12374,-0.84666l0.27386,-0.09956l1.91498,-0.82356l1.77241,-0.56088l4.51734,-0.94781l0.10243,0.00016l0.09806,-0.02956l1.12475,-0.09515l0.02577,-0.00475l0.02769,-0.00876l4.51734,-0.94781l0.10243,0.00016l0.09806,-0.02956l4.59928,-0.38912l5.97229,0.09119l0.09853,-0.0267l0.50987,-0.21927l1.77241,-0.56088l1.08298,-0.22723l0.68684,-0.20704l0.50266,-0.04253l0.36635,-0.07687l1.69482,-0.45937l0.34309,0.04822l0.0411,-0.01239l4.57817,-0.38733l0.73216,-0.17409l1.1646,0.20095l0.47558,0.00727l4.58525,0.52934l2.07104,0.69397l1.35144,0.23319l0.93979,0.08321l0.79822,0.42843l1.2038,0.47977c3.84672,0.90036 7.5823,2.41291 11.10976,4.54668c6.0068,3.6335 10.94818,10.05265 15.16838,15.67864c3.35574,4.47357 6.954,8.97141 9.83969,13.76323c7.73382,12.84232 8.16916,29.61696 8.97004,43.92236c0.48877,8.73049 1.56596,18.0655 0.09545,26.58797l-0.24061,15.75865c-1.05617,9.14875 -2.48884,18.92673 -6.25933,27.56881z" fill="#ae673b" stroke="none" stroke-width="0.5" stroke-linecap="butt"/><path d="M358.0995,90.18276c2.88831,7.28567 4.89784,16.21024 5.50977,24.12425c0.29617,3.83024 1.21201,8.25346 1.13891,12.09759c-0.15266,8.02863 -0.27526,16.05788 -0.36778,24.08743c-0.13253,11.50101 -2.93251,33.87912 -8.46202,44.52849c-1.45008,2.79275 -2.57838,7.86163 -4.66572,10.22294c-4.50368,5.09478 -12.65213,7.86163 -19.40996,7.15982c-12.73931,-1.323 -17.79109,-15.86148 -22.43241,-25.50961c-3.27407,-6.80599 -3.22281,-14.93854 -3.73772,-22.57701c-0.285,-4.22788 -2.29114,-8.15334 -2.46041,-12.4004c-0.93132,-23.36742 -0.68268,-47.16282 -0.09862,-70.55514c0.35263,-14.12334 11.91869,-18.32525 23.24195,-20.22409c2.36388,-0.39642 4.93592,-1.04482 7.34962,-0.4021c0.48493,-0.04076 0.97641,-0.05793 1.47327,-0.05035c4.067,0.06209 7.7229,1.77044 10.34283,4.4808c6.51801,6.14536 9.51123,17.28083 12.57827,25.01734z" fill="#da966b" stroke="none" stroke-width="0.5" stroke-linecap="butt"/><path d="M343.33128,181.33821c-0.07435,4.86957 -4.0822,8.75687 -8.95178,8.68252c-4.86957,-0.07435 -8.75687,-4.0822 -8.68252,-8.95178c0.07435,-4.86957 4.0822,-8.75687 8.95178,-8.68252c4.86957,0.07435 8.75687,4.0822 8.68252,8.95178z" fill="#281b14" stroke="none" stroke-width="0.5" stroke-linecap="butt"/><path d="M339.45904,88.38345c-0.07435,4.86957 -4.0822,8.75687 -8.95178,8.68252c-4.86957,-0.07435 -8.75687,-4.0822 -8.68252,-8.95178c0.07435,-4.86957 4.0822,-8.75687 8.95178,-8.68252c4.86957,0.07435 8.75687,4.0822 8.68252,8.95178z" fill="#281b14" stroke="none" stroke-width="0.5" stroke-linecap="butt"/><path d="M300.5981,170.98292c2.57912,4.33717 2.58741,11.58038 2.96333,16.57863c0.66056,8.78288 3.66682,17.26399 3.78448,26.17881c0.06409,4.85618 2.98461,10.69048 2.2197,15.50331c-1.28406,8.07921 -8.04354,14.27622 -16.84249,13.79685c-7.31014,-0.39825 -10.95325,-7.20366 -12.4519,-13.08208c-1.73724,-6.81422 -2.24581,-14.50337 -2.72506,-21.45144c-0.58798,-8.52445 -2.97668,-17.22686 -4.06603,-25.71829c-0.07253,-0.56542 -0.1294,-1.1765 -0.16562,-1.81977c-0.17927,-0.89954 -0.2732,-1.82903 -0.2732,-2.78003c0,-1.96003 0.399,-3.82868 1.12171,-5.53209c0.97199,-3.25518 2.84974,-6.03735 6.16295,-6.91546c2.17609,-1.24876 4.70895,-1.96449 7.4123,-1.96449c2.93911,0 5.67673,0.846 7.97341,2.30326c1.80675,0.88875 3.31904,2.26695 4.88643,4.90275z" fill="#474747" stroke="none" stroke-width="0.5" stroke-linecap="butt"/><path d="M270.93668,100.23033c-2.70536,-4.63943 -2.00797,-10.9086 -1.3983,-15.861c1.72168,-13.98542 4.46644,-28.15741 12.84139,-39.8219c3.77159,-5.253 9.62248,-9.81869 16.87908,-8.68703c8.23887,1.28483 14.55852,8.04291 14.06964,16.84251c-0.376,6.76784 -5.75585,7.72036 -9.30224,12.02057c-1.92396,2.33293 -2.6523,7.93423 -3.49446,10.68911c-1.22167,3.99634 -1.27832,10.6071 -2.06089,16.64775c0.01498,0.27193 0.02257,0.54583 0.02257,0.8215c0,2.63418 -0.69301,5.10649 -1.90664,7.24457c-2.52605,4.45017 -7.30759,7.45239 -12.79032,7.45239c-2.93911,0 -5.67673,-0.86274 -7.97341,-2.3488c-1.80675,-0.90632 -3.31904,-2.31177 -4.88643,-4.99968z" fill="#474747" stroke="none" stroke-width="0.5" stroke-linecap="butt"/><path d="M281.62721,67.29163c1.45237,0.22482 2.76202,0.69028 3.96914,1.32089c4.68687,0.03451 8.85189,2.26287 11.51908,5.7091c1.15195,1.32092 2.01152,2.95316 2.52862,5.03068c0.35108,1.25889 0.53877,2.58592 0.53877,3.95679c0.31346,7.11395 0.54973,14.25067 0.45997,21.37545c3.50896,16.41165 2.84858,31.32195 2.11811,53.57414c0.33835,1.23757 0.51899,2.54027 0.51899,3.88517c0,0.303 -0.00917,0.60388 -0.02724,0.90235c0.00888,0.07484 0.01794,0.14946 0.02724,0.22386c0.75046,6.00369 2.02241,19.05657 -0.99246,25.0863c-2.54524,5.0905 -7.14043,7.34848 -12.85984,7.34848c-1.72143,0 -3.24826,-0.20278 -4.6025,-0.57917c-6.23645,0.32477 -12.8657,-2.77934 -16.80774,-7.59198c-2.34794,-2.86648 -2.35608,-8.16981 -2.8595,-11.59376c-0.64618,-4.39489 -1.05261,-9.1458 -1.40777,-13.51454c-0.5131,-6.3114 -3.31601,-12.47632 -3.37863,-18.86403c-0.03403,-3.47049 -0.11113,-6.94291 -0.16803,-10.41515c-0.27107,-1.35655 -0.53145,-2.63288 -0.75591,-3.76965c-0.46375,-2.3487 0.22824,-5.14704 0.05428,-7.59472c-0.87272,-12.28009 -0.49648,-23.24859 -0.53811,-36.44596c-0.0004,-0.12401 -0.09157,-0.23655 -0.09157,-0.36056c0,-7.29301 5.6283,-16.95116 13.57923,-17.40213c0.92409,-0.05242 1.83741,0.04523 2.74513,0.2214c1.96093,-0.64534 4.12694,-0.85957 6.43074,-0.50295z" fill="#f72d4a" stroke="none" stroke-width="0.5" stroke-linecap="butt"/><path d="M292.7146,81.59163c0.45971,0.78836 0.81876,1.71432 1.09767,2.73269c0.46655,1.41157 0.72496,2.91788 0.73886,4.48256c0.41276,4.84313 -0.05418,10.21804 0.00059,13.03713c0.09831,5.05928 1.95843,10.16415 2.5316,15.15554c0.82054,7.14557 1.0301,13.92488 1.12859,21.21228c0.08877,6.56897 -0.08877,13.13973 0,19.7087c0.0723,5.34983 0.72141,10.7163 0.28156,16.04851c-0.69597,8.43694 -5.57027,14.69696 -14.69696,14.69696c-9.13469,0 -13.99212,-6.26048 -14.69696,-14.69696c-0.43764,-5.23824 -0.21147,-10.51093 -0.28156,-15.76695c-0.15741,-11.806 0.57619,-24.464 -0.59914,-36.25047c-1.13436,-11.37555 -4.06585,-20.98835 -3.06105,-33.0115c0,-2.64843 0.70053,-5.13324 1.9264,-7.27925c1.18286,-2.55077 2.93528,-4.75952 5.35827,-5.41438c2.17609,-1.27345 4.70895,-2.00333 7.4123,-2.00333c2.93912,0 5.67673,0.86275 7.97341,2.3488c1.80675,0.90632 3.31904,2.31176 4.88643,4.99968z" fill="#ff4762" stroke="none" stroke-width="0.5" stroke-linecap="butt"/><path d="M271.65792,42.07202l28.22386,-0.15701" fill="none" stroke="#da966b" stroke-width="20" stroke-linecap="round"/><path d="M271.42547,231.39169l24.68801,0.37695" fill="none" stroke="#da966b" stroke-width="20" stroke-linecap="round"/></g></g></g></svg>