<svg version="1.1" xmlns="http://www.w3.org/2000/svg" xmlns:xlink="http://www.w3.org/1999/xlink" width="205.04893" height="180.99346" viewBox="0,0,205.04893,180.99346"><g transform="translate(-103.42218,-85.98393)"><g data-paper-data="{&quot;isPaintingLayer&quot;:true}" fill-rule="nonzero" stroke-linejoin="miter" stroke-miterlimit="10" stroke-dasharray="" stroke-dashoffset="0" style="mix-blend-mode: normal"><path d="M113.42218,185.60355l6.01457,-0.90828l8.51428,-0.87012l8.0983,-6.37711l6.19014,-12.40694l13.61293,-7.29302l10.42244,5.15972l6.85415,9.60576l9.41493,5.64439" fill="none" stroke="#ae673b" stroke-width="20" stroke-linecap="round"/><path d="M144.22436,164.77598c0,0 -3.57684,15.60102 -9.01744,17.79349c-4.75521,1.91628 -15.34587,1.14646 -15.34587,1.14646" fill="none" stroke="#7abe40" stroke-width="27.5" stroke-linecap="round"/><path d="M183.52886,124.80462l10.52499,-11.01795" fill="none" stroke="#ffe95e" stroke-width="4" stroke-linecap="round"/><path d="M182.33726,124.50205l7.81949,-13.77546" fill="none" stroke="#efd634" stroke-width="4" stroke-linecap="round"/><path d="M182.95949,123.96945l-8.83227,-9.57225" fill="none" stroke="#ffe95e" stroke-width="4" stroke-linecap="round"/><path d="M159.04485,115.42207l6.51791,13.31775" fill="none" stroke="#efd634" stroke-width="4" stroke-linecap="round"/><path d="M177.51676,112.66818l-10.52499,11.01795" fill="none" stroke="#ffe95e" stroke-width="4" stroke-linecap="round"/><path d="M164.58191,122.5316l10.25599,-12.07155" fill="none" stroke="#efd634" stroke-width="4" stroke-linecap="round"/><path d="M154.01583,112.53113l5.59283,11.76253" fill="none" stroke="#ffe95e" stroke-width="4" stroke-linecap="round"/><path d="M149.98366,111.94676l6.51791,13.31775" fill="none" stroke="#efd634" stroke-width="4" stroke-linecap="round"/><path d="M190.59317,106.16542l-10.52499,11.01795" fill="none" stroke="#ffe95e" stroke-width="4" stroke-linecap="round"/><path d="M177.65834,116.02884l10.25599,-12.07155" fill="none" stroke="#efd634" stroke-width="4" stroke-linecap="round"/><path d="M165.03749,107.51017l8.83227,9.57224" fill="none" stroke="#efd634" stroke-width="4" stroke-linecap="round"/><path d="M171.19088,118.93181l-10.17729,-10.78278" fill="none" stroke="#ffe95e" stroke-width="4" stroke-linecap="round"/><path d="M170.38498,115.32599l-10.52499,11.01795" fill="none" stroke="#efd634" stroke-width="4" stroke-linecap="round"/><path d="M157.45013,125.18941l10.25599,-12.07155" fill="none" stroke="#ffe95e" stroke-width="4" stroke-linecap="round"/><path d="M175.91129,116.67074l8.83227,9.57225" fill="none" stroke="#efd634" stroke-width="4" stroke-linecap="round"/><path d="M182.06468,128.09238l-10.1773,-10.78278" fill="none" stroke="#ffe95e" stroke-width="4" stroke-linecap="round"/><path d="M194.58727,203.04662c-0.19177,5.56139 0.37663,13.85044 -2.54146,18.97646c-2.57015,4.51482 -6.29001,6.68055 -10.37374,7.13228c-4.67952,2.65978 -11.57796,2.0549 -16.26412,1.1684c-19.6925,-3.72531 -21.09182,-30.38031 -21.27362,-45.63262c-0.10598,-8.89158 -0.07043,-17.7847 0,-26.67662c0.02893,-3.65199 0.73222,-7.35544 0.73222,-11.01734c0,-3.21447 0.41142,-9.72901 2.05635,-15.50638c0.27254,-2.1888 1.11097,-4.20193 2.36429,-5.88838c2.0478,-3.59767 5.0019,-5.8825 9.23467,-5.02587c0.26603,-0.0169 0.53431,-0.02548 0.80461,-0.02548c2.41511,0 4.67026,0.68492 6.58178,1.87112c0.8446,0.20222 5.82883,-2.19374 7.82241,-2.19374c8.31315,0 15.84702,2.42601 20.79608,9.26127c3.90159,5.38857 3.52298,13.32119 3.24213,19.46944c-0.31416,6.87747 -1.72312,13.61356 -3.24561,20.32595c2.47745,11.29581 0.47578,21.81959 0.06399,33.76151z" fill="#808080" stroke="none" stroke-width="0.5" stroke-linecap="butt"/><path d="M144.86377,162.29072c0.81782,-1.14533 1.86666,-2.06547 3.08183,-2.80051c2.08313,-1.55339 4.6667,-2.47293 7.46505,-2.47293c0.2485,0 0.49531,0.00725 0.74023,0.02155c5.93775,-0.66274 12.47874,0.1608 16.39155,0.46792c7.17719,0.56335 12.5,4.76331 12.5,12.5c0,15.13536 -18.66671,13.75645 -29.1423,12.01052c-0.01537,-0.00256 -0.0308,-0.00513 -0.04627,-0.00771c-0.1471,0.00513 -0.29485,0.00771 -0.44321,0.00771c-2.3551,0 -4.55807,-0.6513 -6.43864,-1.78362c-3.63198,-2.18687 -6.06136,-6.16792 -6.06136,-10.71638c0,-1.56828 0.28881,-3.0691 0.81614,-4.45218c0.22233,-0.99894 0.5477,-1.94911 1.13698,-2.77439z" fill="#efd634" stroke="none" stroke-width="0.5" stroke-linecap="butt"/><path d="M298.40621,226.18527l-0.99547,2.29002l-0.12272,0.7112l-1.45338,3.64679l-0.51521,0.99225l-0.27328,0.41841l-0.52826,1.84241l-0.84567,0.70809l-3.38676,3.19604l-3.49967,3.48869l-1.61198,0.64296l-0.75425,0.48637l-2.51817,1.99693l-1.52216,0.7581l-1.50802,1.19587l-0.39622,0.19733l-1.76898,1.48122l-3.05301,0.92033l-2.85431,1.42155l-0.63726,0.03687l-1.18304,0.30044l-0.82482,0.69064l-0.96237,0.29011l-0.36455,0.17536l-3.68946,1.34137l-1.83945,0.25984l-1.77865,0.53618l-3.91176,0.33094l-0.40449,-0.00618l-0.99526,0.14059l-0.61088,-0.16512l-13.48757,-0.20594l-1.93125,-0.22295l-0.24481,0.01171l-0.85916,-0.13915l-0.86462,-0.09982l-0.23239,-0.07787l-1.91907,-0.31083l-1.99213,-0.53048l-3.23918,-1.21892l-0.28272,0.06722l-0.99051,-0.17091l-0.40449,-0.00618l-3.56253,-0.41128l-0.92821,0.17315l-2.29002,-0.99548l-0.7112,-0.12272l-3.64679,-1.45338l-0.35903,-0.18641l-0.95307,-0.31936l-0.83982,-0.74799l-1.61376,-0.70151l-1.87891,-1.99104l-0.09032,-0.03926l-1.19491,-1.26621l-1.68984,-1.43185l-0.82815,-1.06822l-0.34374,-0.30614l-0.0456,-0.17956l-0.03165,-0.03175l-1.61043,-0.9917l-2.72456,-3.86083l-0.72455,-0.93459l-0.35068,-0.36155l-0.77475,-0.97698l-0.86812,-0.89505l-3.04156,-3.83547l-1.79706,-1.58856l-0.73526,-0.79364l-0.01008,-0.00715l-0.96039,-1.04036l-0.96226,-1.03865l-0.00634,-0.0106l-0.73384,-0.79496l-3.43089,-4.55291l-0.11435,-0.18816l-0.14649,-0.16439l-1.46929,-2.02267l-0.53591,-0.91767l-0.63719,-0.85047l-2.43864,-4.0377l-0.82414,-1.73407l-0.90238,-1.69467l-0.44366,-1.08047l-1.55213,-2.6578l-0.51624,-1.55686l-0.7722,-1.44709l-1.09167,-3.77089l-0.16695,-0.90652l-0.29133,-0.87858l0.04068,-0.48241l-0.04416,-0.23983l-0.1851,-2.23967l-0.38698,-2.56256l-0.10351,-2.05972l-0.17386,-2.05497l0.267,-17.4871l-0.14638,-0.61564l0.1709,-0.99051l0.00618,-0.40449l0.45021,-3.89983l0.59023,-1.76145l0.31588,-1.83066l1.38368,-3.47187l0.28985,-0.95882l0.42329,-1.58961l1.38262,-3.6742l0.19079,-0.29878l0.10314,-0.33916l1.89449,-3.43835l0.59656,-0.8659l0.37158,-0.93237l1.03042,-1.9845l0.45465,-0.6961l0.07381,-0.1375l0.13377,-0.38179l1.66034,-3.55733l1.11696,-1.48443l0.41894,-0.78053l0.49181,-1.61722l0.2566,-0.46572l0.54339,-1.62167l0.91811,-1.03084l0.17638,-0.32011l1.02278,-1.48456l0.44957,-0.53059l0.36887,-0.58955l1.53036,-1.97687l0.88493,-0.93399l0.01881,-0.04029l1.11696,-1.48443l0.87857,-1.63684l2.53202,-3.00004l0.29038,-0.28166l0.60435,-0.80317l0.48726,-0.2799l2.17866,-2.58138l0.29038,-0.28166l0.60435,-0.80317l0.89539,-0.51435l1.15522,-0.9161l0.75899,-0.60429l0.60184,-0.82765l1.91754,-1.14361l1.58122,-1.57625l3.20567,-1.27863l0.43798,-0.26121l0.89398,-0.89118l0.94114,-0.37539l0.67939,-0.43809l0.32535,-0.16653l1.05839,-0.88622l1.63752,-0.49363l0.47333,-0.24226l2.65679,-0.7201l0.23292,-0.08468l1.62872,-0.70045l1.50746,-0.47704l3.84207,-0.80613l0.08712,0.00014l0.0834,-0.02514l0.95662,-0.08093l0.02192,-0.00404l0.02355,-0.00745l3.84207,-0.80613l0.08712,0.00014l0.0834,-0.02514l3.91176,-0.33095l5.07953,0.07756l0.0838,-0.02271l0.43365,-0.18649l1.50746,-0.47704l0.92109,-0.19326l0.58417,-0.17609l0.42752,-0.03617l0.31159,-0.06538l1.44147,-0.3907l0.2918,0.04101l0.03496,-0.01054l3.89381,-0.32943l0.62271,-0.14807l0.99051,0.17091l0.40449,0.00618l3.89983,0.45021l1.76145,0.59023l1.14942,0.19833l0.79931,0.07077l0.6789,0.36439l1.02385,0.40805c3.2717,0.76577 6.44887,2.05222 9.44903,3.86702c5.10888,3.09035 9.3116,8.54994 12.90095,13.33493c2.85411,3.80484 5.91449,7.63033 8.36881,11.70585c6.57774,10.9226 6.948,25.1897 7.62916,37.35667c0.41571,7.42542 1.33187,15.365 0.08118,22.61349l-0.20464,13.40298c-0.89829,7.78116 -2.1168,16.09749 -5.32366,23.44771z" fill="#ae673b" stroke="none" stroke-width="0.5" stroke-linecap="butt"/><path d="M302.81278,137.03641c2.45655,6.19658 4.16569,13.78707 4.68615,20.51806c0.2519,3.25768 1.03083,7.0197 0.96866,10.28919c-0.12984,6.82848 -0.23411,13.65748 -0.3128,20.48674c-0.11272,9.78179 -2.49415,28.81473 -7.19708,37.87219c-1.23332,2.37528 -2.19295,6.68644 -3.96827,8.69477c-3.83045,4.33319 -10.76084,6.68644 -16.50848,6.08954c-10.83499,-1.12523 -15.13161,-13.49044 -19.07912,-21.69633c-2.78465,-5.7886 -2.74105,-12.70547 -3.17899,-19.20211c-0.2424,-3.59588 -1.94865,-6.93455 -2.09262,-10.54674c-0.7921,-19.87436 -0.58063,-40.11273 -0.08388,-60.00827c0.29992,-12.01213 10.13704,-15.58592 19.76765,-17.20091c2.01052,-0.33716 4.19808,-0.88864 6.25097,-0.34199c0.41244,-0.03467 0.83045,-0.04927 1.25304,-0.04282c3.45905,0.05281 6.56845,1.50579 8.79674,3.81099c5.54367,5.22673 8.08945,14.69762 10.69802,21.27765z" fill="#da966b" stroke="none" stroke-width="0.5" stroke-linecap="butt"/><path d="M290.25219,214.56558c-0.06324,4.14165 -3.47198,7.44786 -7.61363,7.38462c-4.14165,-0.06324 -7.44786,-3.47198 -7.38462,-7.61363c0.06324,-4.14165 3.47198,-7.44786 7.61363,-7.38462c4.14165,0.06324 7.44786,3.47198 7.38462,7.61363z" fill="#281b14" stroke="none" stroke-width="0.5" stroke-linecap="butt"/><path d="M286.95882,135.50607c-0.06324,4.14165 -3.47198,7.44786 -7.61363,7.38462c-4.14165,-0.06324 -7.44786,-3.47198 -7.38462,-7.61363c0.06324,-4.14165 3.47198,-7.44786 7.61363,-7.38462c4.14165,0.06324 7.44786,3.47198 7.38462,7.61363z" fill="#281b14" stroke="none" stroke-width="0.5" stroke-linecap="butt"/><path d="" fill="#ffe95e" stroke="none" stroke-width="0.5" stroke-linecap="butt"/><path d="M253.90693,205.48675c2.19358,3.52542 2.20063,9.413 2.52036,13.47577c0.56182,7.13907 3.11869,14.03286 3.21876,21.27918c0.05451,3.9473 2.53846,8.68964 1.88789,12.6017c-1.09211,6.5671 -6.84116,11.60427 -14.32481,11.21463c-6.21739,-0.32371 -9.31591,-5.85543 -10.59054,-10.63363c-1.47755,-5.53887 -1.9101,-11.78892 -2.31771,-17.43658c-0.50009,-6.92901 -2.53171,-14.00268 -3.45822,-20.90485c-0.06169,-0.4596 -0.11006,-0.9563 -0.14086,-1.47918c-0.15247,-0.73118 -0.23236,-1.48671 -0.23236,-2.25972c0,-1.59319 0.33936,-3.1121 0.95403,-4.49669c0.82669,-2.64594 2.42375,-4.9074 5.24169,-5.62116c1.8508,-1.01504 4.00504,-1.59681 6.30428,-1.59681c2.49976,0 4.82815,0.68767 6.78151,1.87218c1.53667,0.72241 2.8229,1.84267 4.15599,3.98515z" fill="#474747" stroke="none" stroke-width="0.5" stroke-linecap="butt"/><path d="M228.67942,145.58203c-2.30095,-3.94591 -1.70781,-9.27794 -1.18928,-13.49003c1.46432,-11.89482 3.79878,-23.94833 10.92181,-33.86916c3.2078,-4.46776 8.18407,-8.35095 14.35593,-7.38846c7.00729,1.09277 12.38225,6.84062 11.96645,14.32482c-0.31979,5.75616 -4.89544,6.56629 -7.9117,10.22369c-1.63636,1.98419 -2.25582,6.74819 -2.97209,9.09126c-1.03905,3.39895 -1.08723,9.02151 -1.75282,14.15918c0.01274,0.23128 0.0192,0.46424 0.0192,0.6987c0,2.24041 -0.58942,4.34315 -1.62163,6.16162c-2.14845,3.78494 -6.21522,6.33838 -10.87837,6.33838c-2.49976,0 -4.82815,-0.73377 -6.78151,-1.99769c-1.53667,-0.77084 -2.8229,-1.9662 -4.15599,-4.25231z" fill="#474747" stroke="none" stroke-width="0.5" stroke-linecap="butt"/><path d="M237.7719,117.56714c1.23526,0.19121 2.34914,0.58709 3.37582,1.12344c3.98626,0.02935 7.52867,1.92461 9.79716,4.85568c0.97975,1.12346 1.71083,2.51171 2.15063,4.27867c0.2986,1.07071 0.45823,2.19937 0.45823,3.36531c0.2666,6.05053 0.46755,12.12042 0.39121,18.18016c2.98443,13.95837 2.42276,26.63982 1.80149,45.56566c0.28777,1.05257 0.44141,2.16054 0.44141,3.3044c0,0.25771 -0.0078,0.51361 -0.02317,0.76746c0.00755,0.06365 0.01526,0.12712 0.02317,0.1904c0.63828,5.10623 1.72009,16.20792 -0.8441,21.3363c-2.16477,4.32955 -6.07305,6.25 -10.9375,6.25c-1.4641,0 -2.7627,-0.17247 -3.9145,-0.49259c-5.3042,0.27622 -10.94248,-2.36387 -14.29525,-6.4571c-1.99696,-2.43799 -2.00388,-6.94855 -2.43205,-9.86068c-0.54959,-3.73792 -0.89526,-7.77865 -1.19733,-11.49433c-0.4364,-5.36795 -2.82032,-10.61131 -2.87358,-16.04416c-0.02894,-2.95171 -0.09452,-5.90506 -0.14291,-8.85825c-0.23055,-1.15377 -0.45201,-2.23931 -0.64291,-3.20615c-0.39443,-1.99761 0.19412,-4.37764 0.04617,-6.45943c-0.74226,-10.44441 -0.42226,-19.7733 -0.45767,-30.99787c-0.00034,-0.10547 -0.07788,-0.20119 -0.07788,-0.30666c0,-6.20282 4.78696,-14.41723 11.54935,-14.80079c0.78595,-0.04458 1.56275,0.03847 2.33478,0.1883c1.6678,-0.54887 3.51003,-0.73108 5.46945,-0.42777z" fill="#f72d4a" stroke="none" stroke-width="0.5" stroke-linecap="butt"/><path d="M247.20193,129.72952c0.39099,0.67051 0.69637,1.45806 0.93359,2.3242c0.39681,1.20056 0.61659,2.4817 0.62841,3.81249c0.35106,4.11916 -0.04608,8.69061 0.0005,11.08829c0.08361,4.303 1.66568,8.64477 2.15317,12.89003c0.69788,6.07742 0.87612,11.84333 0.95988,18.04138c0.0755,5.58701 -0.0755,11.17555 0,16.76256c0.06149,4.55012 0.61357,9.11438 0.23947,13.64951c-0.59193,7.17575 -4.7376,12.5 -12.5,12.5c-7.7692,0 -11.90052,-5.32464 -12.5,-12.5c-0.37222,-4.45521 -0.17986,-8.93971 -0.23947,-13.41004c-0.13388,-10.04119 0.49006,-20.80702 -0.50958,-30.8316c-0.96479,-9.67509 -3.45807,-17.85093 -2.60347,-28.07681c0,-2.25253 0.59581,-4.3659 1.63843,-6.19112c1.00604,-2.16947 2.4965,-4.04805 4.55729,-4.60502c1.8508,-1.08309 4.00504,-1.70386 6.30428,-1.70386c2.49977,0 4.82815,0.73378 6.78151,1.99769c1.53667,0.77084 2.8229,1.96619 4.15599,4.25231z" fill="#ff4762" stroke="none" stroke-width="0.5" stroke-linecap="butt"/><path d="M253.29769,95.98393l-24.00484,0.13354" fill="none" stroke="#da966b" stroke-width="20" stroke-linecap="round"/><path d="M247.33802,256.65679l20.99755,0.3206" fill="none" stroke="#da966b" stroke-width="20" stroke-linecap="round"/><path d="M244.67173,141.47392l-15.60246,-10.32163" fill="none" stroke="#474747" stroke-width="11.5" stroke-linecap="round"/><path d="M227.38902,146.51471l18.24288,12.96205" fill="none" stroke="#474747" stroke-width="11.5" stroke-linecap="round"/><path d="M235.29187,216.84581l14.88235,-15.12239" fill="none" stroke="#474747" stroke-width="11.5" stroke-linecap="round"/><path d="M231.93134,199.32305l15.60246,-14.64231" fill="none" stroke="#474747" stroke-width="11.5" stroke-linecap="round"/></g></g></svg>