<svg version="1.1" xmlns="http://www.w3.org/2000/svg" xmlns:xlink="http://www.w3.org/1999/xlink" width="293.5029" height="353.34368" viewBox="0,0,293.5029,353.34368"><g transform="translate(-106.63913,-2.9002)"><g data-paper-data="{&quot;isPaintingLayer&quot;:true}" fill-rule="nonzero" stroke-linejoin="miter" stroke-miterlimit="10" stroke-dasharray="" stroke-dashoffset="0" style="mix-blend-mode: normal"><path d="M106.83389,347.66591v-344.76571h293.30814v344.76571z" fill="#96e3ff" stroke="none" stroke-width="0" stroke-linecap="butt"/><path d="M358.47379,188.56568l-1.18673,2.73001l-0.1463,0.84785l-1.73262,4.34747l-0.6142,1.1829l-0.32579,0.4988l-0.62976,2.1964l-1.00815,0.84414l-4.03747,3.81011l-4.17208,4.15899l-1.9217,0.7665l-0.89917,0.57982l-3.002,2.38061l-1.81462,0.90376l-1.79776,1.42564l-0.47235,0.23524l-2.10886,1.76581l-3.6396,1.09716l-3.40272,1.69468l-0.7597,0.04395l-1.41034,0.35816l-0.9833,0.82334l-1.14727,0.34585l-0.43459,0.20905l-4.39833,1.59909l-2.19287,0.30976l-2.12039,0.6392l-4.66335,0.39453l-0.48221,-0.00737l-1.18648,0.1676l-0.72825,-0.19685l-16.079,-0.24551l-2.30231,-0.26579l-0.29185,0.01396l-1.02423,-0.16589l-1.03074,-0.119l-0.27704,-0.09283l-2.28779,-0.37055l-2.37489,-0.6324l-3.86154,-1.45312l-0.33704,0.08014l-1.18082,-0.20375l-0.48221,-0.00737l-4.24702,-0.4903l-1.10655,0.20642l-2.73001,-1.18675l-0.84785,-0.1463l-4.34747,-1.73262l-0.42801,-0.22223l-1.13619,-0.38072l-1.00118,-0.8917l-1.92382,-0.83629l-2.23991,-2.37359l-0.10767,-0.0468l-1.42449,-1.50949l-2.01452,-1.70696l-0.98727,-1.27346l-0.40978,-0.36496l-0.05436,-0.21406l-0.03773,-0.03785l-1.91985,-1.18224l-3.24804,-4.60263l-0.86376,-1.11416l-0.41806,-0.43102l-0.92361,-1.16469l-1.03492,-1.06702l-3.62595,-4.5724l-2.14234,-1.89378l-0.87653,-0.94613l-0.01202,-0.00852l-1.14491,-1.24025l-1.14714,-1.23821l-0.00756,-0.01264l-0.87484,-0.9477l-4.09008,-5.42768l-0.13632,-0.22431l-0.17464,-0.19598l-1.75159,-2.4113l-0.63888,-1.09399l-0.75962,-1.01387l-2.90719,-4.81348l-0.98249,-2.06725l-1.07576,-2.02028l-0.5289,-1.28807l-1.85035,-3.16846l-0.61543,-1.85599l-0.92057,-1.72513l-1.30142,-4.49541l-0.19903,-1.08069l-0.3473,-1.04739l0.0485,-0.5751l-0.05264,-0.28591l-0.22066,-2.66999l-0.46133,-3.05492l-0.1234,-2.45546l-0.20726,-2.4498l0.3183,-20.84698l-0.1745,-0.73393l0.20374,-1.18082l0.00737,-0.48221l0.53671,-4.64912l0.70363,-2.09989l0.37657,-2.18239l1.64953,-4.13894l0.34554,-1.14304l0.50462,-1.89503l1.64827,-4.38014l0.22745,-0.35619l0.12296,-0.40432l2.25849,-4.09898l0.71118,-1.03227l0.44297,-1.11151l1.2284,-2.36579l0.542,-0.82985l0.08799,-0.16392l0.15947,-0.45515l1.97935,-4.24082l1.33157,-1.76964l0.49943,-0.9305l0.5863,-1.92794l0.3059,-0.5552l0.64779,-1.93325l1.09451,-1.2289l0.21027,-0.38161l1.21929,-1.7698l0.53595,-0.63253l0.43974,-0.70282l1.8244,-2.3567l1.05496,-1.11344l0.02242,-0.04803l1.33157,-1.76964l1.04737,-1.95133l3.01851,-3.57645l0.34617,-0.33578l0.72047,-0.95749l0.58088,-0.33368l2.59726,-3.07735l0.34617,-0.33578l0.72047,-0.95749l1.06743,-0.61317l1.37718,-1.09211l0.90482,-0.7204l0.71747,-0.98667l2.28597,-1.36334l1.88503,-1.8791l3.82159,-1.5243l0.52213,-0.3114l1.06574,-1.06241l1.12197,-0.44752l0.80992,-0.52226l0.38786,-0.19853l1.26174,-1.05649l1.95214,-0.58847l0.56427,-0.28881l3.16725,-0.85846l0.27767,-0.10095l1.94165,-0.83503l1.7971,-0.5687l4.58027,-0.96102l0.10386,0.00017l0.09942,-0.02997l1.14042,-0.09648l0.02613,-0.00482l0.02807,-0.00888l4.58027,-0.96102l0.10386,0.00017l0.09942,-0.02997l4.66335,-0.39454l6.05548,0.09246l0.0999,-0.02707l0.51697,-0.22232l1.7971,-0.5687l1.09806,-0.23039l0.69641,-0.20992l0.50966,-0.04312l0.37146,-0.07794l1.71843,-0.46577l0.34786,0.04889l0.04168,-0.01257l4.64195,-0.39272l0.74235,-0.17652l1.18082,0.20375l0.48221,0.00737l4.64912,0.53671l2.09989,0.70363l1.37026,0.23644l0.95289,0.08437l0.80934,0.4344l1.22057,0.48645c3.90031,0.9129 7.68792,2.44652 11.26452,4.61001c6.09047,3.68411 11.10068,10.19268 15.37967,15.89703c3.40248,4.53588 7.05087,9.09638 9.97675,13.95495c7.84155,13.02121 8.28295,30.02952 9.09499,44.53419c0.49558,8.8521 1.58777,18.31715 0.09678,26.95833l-0.24396,15.97816c-1.07088,9.27619 -2.52351,19.19038 -6.34652,27.95283z" fill="#ae673b" stroke="none" stroke-width="0.5" stroke-linecap="butt"/><path d="M363.72702,82.28822c2.92854,7.38716 4.96606,16.43605 5.58652,24.46029c0.3003,3.88359 1.22889,8.36843 1.15477,12.2661c-0.15479,8.14047 -0.27909,16.28156 -0.3729,24.42296c-0.13438,11.66121 -2.97336,34.35104 -8.57989,45.14876c-1.47028,2.83165 -2.61429,7.97114 -4.73071,10.36534c-4.56641,5.16575 -12.82837,7.97114 -19.68033,7.25955c-12.91677,-1.34143 -18.03892,-16.08242 -22.74488,-25.86495c-3.31968,-6.90079 -3.2677,-15.14663 -3.78978,-22.8915c-0.28897,-4.28677 -2.32305,-8.26692 -2.49469,-12.57314c-0.94429,-23.69292 -0.69219,-47.81978 -0.1,-71.53795c0.35755,-14.32008 12.08472,-18.58052 23.5657,-20.5058c2.39681,-0.40194 5.00468,-1.05938 7.452,-0.4077c0.49168,-0.04133 0.99001,-0.05874 1.49379,-0.05105c4.12365,0.06296 7.83048,1.7951 10.4869,4.54321c6.6088,6.23097 9.64372,17.52154 12.75348,25.36583z" fill="#da966b" stroke="none" stroke-width="0.5" stroke-linecap="butt"/><path d="M348.75311,174.71345c-0.07539,4.93741 -4.13907,8.87885 -9.07647,8.80346c-4.93741,-0.07539 -8.87885,-4.13907 -8.80346,-9.07647c0.07539,-4.93741 4.13907,-8.87885 9.07647,-8.80346c4.93741,0.07539 8.87885,4.13907 8.80346,9.07647z" fill="#281b14" stroke="none" stroke-width="0.5" stroke-linecap="butt"/><path d="M344.82693,80.46387c-0.07539,4.93741 -4.13907,8.87885 -9.07647,8.80346c-4.93741,-0.07539 -8.87885,-4.13907 -8.80346,-9.07647c0.07539,-4.93741 4.13907,-8.87885 9.07647,-8.80346c4.93741,0.07539 8.87885,4.13907 8.80346,9.07647z" fill="#281b14" stroke="none" stroke-width="0.5" stroke-linecap="butt"/><path d="M137.65613,139.89504l7.17018,-1.08279l10.15017,-1.0373l9.65427,-7.60237l7.37948,-14.79075l16.22845,-8.69426l12.42495,6.15108l8.17107,11.45136l11.22387,6.72887" fill="none" stroke="#ae673b" stroke-width="20" stroke-linecap="round"/><path d="M304.41287,33.34813l-28.61701,0.1592" fill="none" stroke="#da966b" stroke-width="20" stroke-linecap="round"/><path d="M309.78456,224.72893l-27.8674,0.4255" fill="none" stroke="#da966b" stroke-width="20" stroke-linecap="round"/><path d="M106.63913,347.66591v-81.47448h292.45052v81.47448z" fill="#66d7ff" stroke="none" stroke-width="0" stroke-linecap="butt"/><text transform="translate(166.67296,329.61598) scale(1.63864,1.63864)" font-size="40" xml:space="preserve" fill="#fefefe" fill-rule="nonzero" stroke="none" stroke-width="1" stroke-linecap="butt" stroke-linejoin="miter" stroke-miterlimit="10" stroke-dasharray="" stroke-dashoffset="0" font-family="Marker" font-weight="normal" text-anchor="start" style="mix-blend-mode: normal"><tspan x="0" dy="0">$250</tspan></text></g></g></svg>